<svg width="24" height="37" viewBox="0 0 24 37" fill="none" xmlns="http://www.w3.org/2000/svg">
<path d="M9.81818 37V32.6471H5.45455V28.2941H9.81818V23.7235C6.94545 23.2157 4.59091 21.8463 2.75455 19.6154C0.918182 17.3846 0 14.8 0 11.8618C0 8.56078 1.17273 5.75858 3.51818 3.45515C5.86364 1.15172 8.69091 0 12 0C15.3091 0 18.1364 1.15172 20.4818 3.45515C22.8273 5.75858 24 8.56078 24 11.8618C24 14.8 23.0818 17.3846 21.2455 19.6154C19.4091 21.8463 17.0545 23.2157 14.1818 23.7235V28.2941H18.5455V32.6471H14.1818V37H9.81818ZM12 19.5882C14.1091 19.5882 15.9091 18.8446 17.4 17.3574C18.8909 15.8701 19.6364 14.0745 19.6364 11.9706C19.6364 9.86667 18.8909 8.07108 17.4 6.58382C15.9091 5.09657 14.1091 4.35294 12 4.35294C9.89091 4.35294 8.09091 5.09657 6.6 6.58382C5.10909 8.07108 4.36364 9.86667 4.36364 11.9706C4.36364 14.0745 5.10909 15.8701 6.6 17.3574C8.09091 18.8446 9.89091 19.5882 12 19.5882Z" fill="#7B2CBF"/>
</svg>
