<svg width="37" height="37" viewBox="0 0 37 37" fill="none" xmlns="http://www.w3.org/2000/svg">
<path d="M37 0V13.875H32.375V7.92031L23.1828 17.0547C23.9151 18.1339 24.474 19.2805 24.8594 20.4945C25.2448 21.7086 25.4375 22.9708 25.4375 24.2812C25.4375 27.8271 24.2042 30.8333 21.7375 33.3C19.2708 35.7667 16.2646 37 12.7188 37C9.17292 37 6.16667 35.7667 3.7 33.3C1.23333 30.8333 0 27.8271 0 24.2812C0 20.7354 1.23333 17.7292 3.7 15.2625C6.16667 12.7958 9.17292 11.5625 12.7188 11.5625C13.9906 11.5625 15.2432 11.7456 16.4766 12.1117C17.7099 12.4779 18.8469 13.0464 19.8875 13.8172L29.0797 4.625H23.125V0H37ZM12.7188 16.1875C10.4833 16.1875 8.57552 16.9776 6.99531 18.5578C5.4151 20.138 4.625 22.0458 4.625 24.2812C4.625 26.5167 5.4151 28.4245 6.99531 30.0047C8.57552 31.5849 10.4833 32.375 12.7188 32.375C14.9542 32.375 16.862 31.5849 18.4422 30.0047C20.0224 28.4245 20.8125 26.5167 20.8125 24.2812C20.8125 22.0458 20.0224 20.138 18.4422 18.5578C16.862 16.9776 14.9542 16.1875 12.7188 16.1875Z" fill="#7B2CBF"/>
</svg>
