<svg width="30" height="29" viewBox="0 0 30 29" fill="none" xmlns="http://www.w3.org/2000/svg">
<path d="M20.6586 4.09447L20.8031 8.23504L24.9497 8.37933L29.0501 4.28487L25.1404 3.90408L24.759 0L20.6586 4.09447Z" fill="#5A179A"/>
<path d="M14.0193 28.9999C6.28811 28.9999 0 22.725 0 15.013C0 7.30106 6.28811 1.01605 14.0193 1.01605C15.9882 1.01605 17.8768 1.41287 19.631 2.19249L18.9245 3.77376C17.3931 3.09235 15.7413 2.74764 14.0173 2.74764C7.24347 2.74764 1.73209 8.24902 1.73209 15.013C1.73209 21.777 7.24347 27.2664 14.0173 27.2664C20.7911 27.2664 26.2884 21.769 26.2884 15.013C26.2884 13.2915 25.9432 11.642 25.2608 10.1129L26.8444 9.40741C27.6271 11.161 28.0225 13.0469 28.0225 15.013C28.0225 22.725 21.7384 28.9999 14.0153 28.9999H14.0193Z" fill="#5A179A"/>
<path d="M14.0153 24.19C8.9475 24.19 4.823 20.0715 4.823 15.011C4.823 9.95055 8.9475 5.83203 14.0153 5.83203C15.7916 5.83203 17.5156 6.34109 19.0008 7.30107L18.0575 8.75408C16.8533 7.97446 15.4564 7.56361 14.0153 7.56361C9.90286 7.56361 6.55709 10.9045 6.55709 15.011C6.55709 19.1175 9.90286 22.4584 14.0153 22.4584C18.1278 22.4584 21.4735 19.1175 21.4735 15.011C21.4735 13.57 21.0621 12.1752 20.2813 10.9767L21.7365 10.0327C22.6978 11.5138 23.2076 13.2353 23.2076 15.011C23.2076 20.0715 19.0831 24.19 14.0153 24.19Z" fill="#5A179A"/>
<path d="M14.0153 19.3781C11.6048 19.3781 9.64191 17.4181 9.64191 15.0111C9.64191 12.6041 11.6048 10.644 14.0153 10.644C14.3966 10.644 14.78 10.6962 15.1533 10.7964L14.6977 12.4678C13.0318 12.0109 11.374 13.3276 11.376 15.0111C11.376 16.4641 12.5582 17.6445 14.0133 17.6445C15.4684 17.6445 16.6505 16.4641 16.6505 15.0111C16.6505 14.7866 16.6204 14.5642 16.5582 14.3377L18.2321 13.8827C18.3345 14.2615 18.3846 14.6303 18.3846 15.0111C18.3846 17.4181 16.4217 19.3781 14.0113 19.3781H14.0153Z" fill="#5A179A"/>
<path d="M21.8741 5.94754L13.3989 14.3969L14.6241 15.6222L23.0993 7.17293L21.8741 5.94754Z" fill="#5A179A"/>
</svg>
